<?xml version="1.0" encoding="utf-8"?>
<!-- Generator: Adobe Illustrator 15.1.0, SVG Export Plug-In . SVG Version: 6.00 Build 0)  -->
<!DOCTYPE svg PUBLIC "-//W3C//DTD SVG 1.1//EN" "http://www.w3.org/Graphics/SVG/1.1/DTD/svg11.dtd">
<svg version="1.1" id="Layer_1" xmlns="http://www.w3.org/2000/svg" xmlns:xlink="http://www.w3.org/1999/xlink" x="0px" y="0px"
	 width="200px" height="200px" viewBox="0 0 200 200" enable-background="new 0 0 200 200" xml:space="preserve">
<g>
	<path fill="none" stroke="#24FAFF" stroke-width="0.4" d="M99.323,51.213"/>
	<path fill="none" stroke="#24FAFF" stroke-width="0.4" d="M94.084,19.791"/>
	<polyline fill="none" stroke="#24FAFF" stroke-width="0.4" points="99.519,53.684 103.67,53.091 108.412,51.51 112.068,47.261 
		114.834,48.545 117.405,42.715 113.749,42.023 112.068,47.261 	"/>
	<polyline fill="none" stroke="#24FAFF" stroke-width="0.4" points="99.125,29.08 106.041,30.463 119.479,30.067 132.225,36.688 
		134.301,42.518 131.237,46.372 126.494,52.3 118.983,54.77 117.7,57.636 115.426,61.094 116.414,64.949 120.564,63.862 
		134.895,60.008 140.428,62.675 141.021,57.932 137.761,57.339 134.895,60.008 	"/>
	<polyline fill="none" stroke="#24FAFF" stroke-width="0.4" points="155.84,18.408 156.139,22.657 163.155,23.545 	"/>
	<polyline fill="none" stroke="#24FAFF" stroke-width="0.4" points="150.803,40.738 152.481,42.123 150.507,44.79 155.545,48.743 
		159.894,51.708 170.267,53.684 186.756,54.77 	"/>
	<line fill="none" stroke="#24FAFF" stroke-width="0.4" x1="190.523" y1="62.577" x2="189.042" y2="75.817"/>
	<polyline fill="none" stroke="#24FAFF" stroke-width="0.4" points="147.442,62.083 155.348,69.889 159.004,62.675 160.288,60.699 
		169.379,59.612 175.407,67.518 171.356,70.976 167.106,73.939 163.646,75.521 162.561,77.991 	"/>
	<line fill="none" stroke="#24FAFF" stroke-width="0.4" x1="159.894" y1="51.708" x2="160.288" y2="60.699"/>
	<line fill="none" stroke="#24FAFF" stroke-width="0.4" x1="170.267" y1="53.684" x2="169.379" y2="59.612"/>
	<polyline fill="none" stroke="#24FAFF" stroke-width="0.4" points="196.39,77.319 186.77,83.624 193.587,94.888 197.936,97.555 	
		"/>
	<polyline fill="none" stroke="#24FAFF" stroke-width="0.4" points="198.528,108.625 194.279,98.389 193.587,94.888 	"/>
	<polyline fill="none" stroke="#24FAFF" stroke-width="0.4" points="189.042,103.089 190.13,101.211 194.279,98.389 	"/>
	<polyline fill="none" stroke="#24FAFF" stroke-width="0.4" points="172.541,111.389 188.745,113.465 196.849,115.638 	"/>
	<polyline fill="none" stroke="#24FAFF" stroke-width="0.4" points="145.96,105.46 147.641,105.065 150.605,104.473 
		152.679,104.771 	"/>
	<line fill="none" stroke="#24FAFF" stroke-width="0.4" x1="152.679" y1="103.979" x2="150.605" y2="104.473"/>
	<polyline fill="none" stroke="#24FAFF" stroke-width="0.4" points="155.744,97.358 150.902,96.271 146.257,100.223 	"/>
	<polyline fill="none" stroke="#24FAFF" stroke-width="0.4" points="163.944,100.521 163.452,102.693 164.932,117.318 
		158.51,123.146 153.924,127.297 164.142,123.938 175.407,124.037 163.452,102.693 	"/>
	<polyline fill="none" stroke="#24FAFF" stroke-width="0.4" points="177.481,124.433 175.407,124.037 164.932,117.318 
		155.248,112.179 155.052,114.452 155.15,117.714 	"/>
	<polyline fill="none" stroke="#24FAFF" stroke-width="0.4" points="146.949,77.398 148.728,76.707 148.628,78.88 147.838,81.055 
		150.605,84.908 151.395,82.833 148.628,78.88 	"/>
	<polyline fill="none" stroke="#24FAFF" stroke-width="0.4" points="131.929,72.952 131.829,75.521 134.696,81.944 132.325,89.849 
		131.335,97.457 127.877,102.793 126.892,87.575 131.829,75.521 	"/>
	<polyline fill="none" stroke="#24FAFF" stroke-width="0.4" points="126.892,87.575 132.325,89.849 139.341,91.232 148.332,93.801 	
		"/>
	<polygon fill="none" stroke="#24FAFF" stroke-width="0.4" points="141.217,113.959 139.636,114.156 138.45,113.365 
		140.129,112.971 	"/>
	<line fill="none" stroke="#24FAFF" stroke-width="0.4" x1="143.49" y1="116.824" x2="141.217" y2="113.959"/>
	<polygon fill="none" stroke="#24FAFF" stroke-width="0.4" points="134.991,126.211 132.818,125.124 134.004,121.467 
		134.895,120.975 	"/>
	<polyline fill="none" stroke="#24FAFF" stroke-width="0.4" points="118.688,72.853 117.995,74.829 114.341,76.113 109.991,69.987 
		100.112,65.639 104.758,76.015 110.487,82.043 110.29,83.228 108.314,82.536 	"/>
	<line fill="none" stroke="#24FAFF" stroke-width="0.4" x1="114.341" y1="76.113" x2="110.487" y2="82.043"/>
	<polyline fill="none" stroke="#24FAFF" stroke-width="0.4" points="110.389,87.674 109.695,89.75 110.783,90.145 110.389,91.825 
		111.969,92.418 111.142,95.858 	"/>
	<polyline fill="none" stroke="#24FAFF" stroke-width="0.4" points="114.539,99.928 114.47,98.163 111.142,95.858 	"/>
	<polyline fill="none" stroke="#24FAFF" stroke-width="0.4" points="86.97,75.62 88.452,79.77 91.713,80.363 92.8,84.414 
		96.851,82.734 	"/>
	<polyline fill="none" stroke="#24FAFF" stroke-width="0.4" points="83.116,86.983 77.385,78.188 74.52,78.88 69.876,79.671 
		66.318,79.078 58.71,82.931 55.548,85.896 53.572,89.849 55.548,90.836 	"/>
	<polyline fill="none" stroke="#24FAFF" stroke-width="0.4" points="69.876,79.671 68.888,84.908 66.813,88.268 66.121,90.244 
		68.197,92.22 	"/>
	<polyline fill="none" stroke="#24FAFF" stroke-width="0.4" points="83.314,88.959 87.068,99.532 89.836,104.373 94.677,109.019 
		89.045,106.844 84.303,101.41 77.189,92.714 	"/>
	<polygon fill="none" stroke="#24FAFF" stroke-width="0.4" points="71.853,98.939 73.631,98.544 74.717,104.373 	"/>
	<polyline fill="none" stroke="#24FAFF" stroke-width="0.4" points="62.86,101.606 70.072,108.821 71.853,112.179 71.654,113.563 	
		"/>
	<polyline fill="none" stroke="#24FAFF" stroke-width="0.4" points="63.947,65.541 70.072,61.687 76.397,60.403 83.71,63.07 
		78.967,66.628 76.299,72.062 	"/>
	<polyline fill="none" stroke="#24FAFF" stroke-width="0.4" points="51.299,14.06 48.928,22.854 54.065,38.961 65.331,45.877 
		66.022,51.608 	"/>
	<polyline fill="none" stroke="#24FAFF" stroke-width="0.4" points="36.299,72.906 41.022,61.885 50.213,58.525 54.659,66.43 
		53.967,70.185 50.904,70.877 44.481,77.991 37.47,75.705 	"/>
	<polyline fill="none" stroke="#24FAFF" stroke-width="0.4" points="19.976,54.968 18.988,63.466 20.173,66.133 	"/>
	<polyline fill="none" stroke="#24FAFF" stroke-width="0.4" points="25.213,77.893 33.809,96.172 34.896,98.347 36.971,100.026 
		37.564,97.655 37.564,95.085 37.861,89.058 35.391,75.027 	"/>
	<polyline fill="none" stroke="#24FAFF" stroke-width="0.4" points="36.971,100.026 39.343,106.449 46.063,113.86 46.458,114.946 
		34.699,112.771 	"/>
	<line fill="none" stroke="#24FAFF" stroke-width="0.4" x1="46.458" y1="114.946" x2="45.074" y2="121.567"/>
	<polyline fill="none" stroke="#24FAFF" stroke-width="0.4" points="14.64,63.07 19.976,54.968 25.806,43.605 27.781,37.083 
		27.781,35.008 	"/>
	<polyline fill="none" stroke="#24FAFF" stroke-width="0.4" points="22.644,39.85 25.806,43.605 32.426,48.545 	"/>
	<polyline fill="none" stroke="#24FAFF" stroke-width="0.4" points="2.881,102.201 11.972,95.777 13.059,89.157 4.66,86.094 
		5.549,81.351 9.403,73.644 18.988,71.173 	"/>
	<polyline fill="none" stroke="#24FAFF" stroke-width="0.4" points="20.866,73.939 11.181,74.631 9.403,73.644 	"/>
	<polyline fill="none" stroke="#24FAFF" stroke-width="0.4" points="23.73,98.742 23.928,100.917 22.446,103.188 20.964,104.473 
		17.407,107.635 15.431,107.635 	"/>
	<line fill="none" stroke="#24FAFF" stroke-width="0.4" x1="11.972" y1="95.777" x2="22.446" y2="103.188"/>
	<polyline fill="none" stroke="#24FAFF" stroke-width="0.4" points="3.474,118.897 6.438,114.649 11.337,118.165 15.529,116.627 
		18.593,118.405 24.324,126.902 25.312,137.87 30.055,137.181 32.031,134.313 35.489,135.105 46.853,137.772 47.446,150.717 
		40.726,156.843 35.489,153.087 30.647,151.902 25.41,153.385 20.371,153.482 	"/>
	<polyline fill="none" stroke="#24FAFF" stroke-width="0.4" points="36.28,164.353 43.691,170.577 58.315,166.921 	"/>
	<polygon fill="none" stroke="#24FAFF" stroke-width="0.4" points="54.659,125.321 60.39,121.271 56.734,118.109 52.683,117.811 
		50.014,122.554 	"/>
	<polyline fill="none" stroke="#24FAFF" stroke-width="0.4" points="54.659,125.321 54.757,128.78 59.006,133.82 65.133,143.602 
		66.121,150.322 82.918,154.273 89.836,144.59 76.793,144.986 72.939,142.317 65.429,143.503 	"/>
	<polyline fill="none" stroke="#24FAFF" stroke-width="0.4" points="77.88,168.106 97.641,167.02 106.141,172.752 102.145,180.063 	
		"/>
	<polyline fill="none" stroke="#24FAFF" stroke-width="0.4" points="82.72,106.252 80.658,108.325 81.197,110.952 75.409,118.504 
		70.876,123.586 65.175,128.935 70.906,127.397 77.979,126.705 80.646,126.804 84.005,127.539 95.566,129.273 100.169,130.517 
		98.642,132.479 99.65,134.215 103.274,134.61 105.579,132.633 104.789,130.591 103.011,129.735 100.169,130.517 	"/>
	<polyline fill="none" stroke="#24FAFF" stroke-width="0.4" points="94.267,111.621 92.734,121.369 107.887,121.369 
		112.168,123.741 113.485,124.729 121.456,128.22 127.055,123.345 	"/>
	<polyline fill="none" stroke="#24FAFF" stroke-width="0.4" points="129.427,112.739 125.21,116.429 111.112,113.465 
		110.19,112.543 107.16,109.71 96.946,109.143 	"/>
	<polyline fill="none" stroke="#24FAFF" stroke-width="0.4" points="123.167,108.984 118.756,110.368 110.916,107.469 
		107.16,109.71 107.885,121.369 	"/>
	<polyline fill="none" stroke="#24FAFF" stroke-width="0.4" points="68.557,192.975 68.888,188.628 75.541,194.227 87.003,186.652 
		91.813,192.184 89.178,198.246 	"/>
	<polyline fill="none" stroke="#24FAFF" stroke-width="0.4" points="130.745,179.206 127.187,182.565 120.336,188.628 
		120.204,189.088 116.316,194.16 126.396,194.555 	"/>
	<polyline fill="none" stroke="#24FAFF" stroke-width="0.4" points="109.598,188.628 108.543,191.328 116.316,194.16 
		115.725,196.992 	"/>
	<polygon fill="none" stroke="#24FAFF" stroke-width="0.4" points="132.325,169.843 128.241,166.691 124.288,165.966 
		116.778,165.308 112.037,168.865 112.562,172.619 113.485,173.08 119.547,172.225 126.396,172.949 133.247,172.752 	"/>
	<polyline fill="none" stroke="#24FAFF" stroke-width="0.4" points="108.479,158.457 112.299,152.066 113.55,149.563 
		112.364,143.24 106.634,141.856 116.119,135.204 117.7,134.873 119.677,136.126 123.563,134.413 121.785,142.58 125.21,148.97 	"/>
	<polyline fill="none" stroke="#24FAFF" stroke-width="0.4" points="146.62,140.275 133.443,138.431 123.563,134.413 	"/>
	<polyline fill="none" stroke="#24FAFF" stroke-width="0.4" points="156.173,141.923 156.104,144.953 150.572,160.301 
		148.991,162.937 144.041,160.752 137.727,157.929 134.301,154.57 130.941,150.946 132.982,151.342 138.12,150.815 143.063,150.617 
		156.104,144.953 	"/>
	<polyline fill="none" stroke="#24FAFF" stroke-width="0.4" points="150.439,173.08 146.752,170.975 141.481,171.17 140.89,184.543 
			"/>
	<polyline fill="none" stroke="#24FAFF" stroke-width="0.4" points="179.162,157.336 174.023,156.282 167.371,161.025 
		165.525,162.079 167.305,172.619 	"/>
	<polyline fill="none" stroke="#24FAFF" stroke-width="0.4" points="176.856,144.03 182.588,147.785 184.761,148.443 	"/>
	<line fill="none" stroke="#24FAFF" stroke-width="0.4" x1="175.453" y1="40.993" x2="178.949" y2="40.396"/>
	<polyline fill="none" stroke="#24FAFF" stroke-width="0.4" points="25.481,35.567 54.659,66.43 33.809,96.172 3.914,115.723 	"/>
	<polyline fill="none" stroke="#24FAFF" stroke-width="0.4" points="181.532,120.908 188.12,123.543 192.985,129.943 	"/>
	<line fill="none" stroke="#24FAFF" stroke-width="0.4" x1="192.729" y1="122.488" x2="188.175" y2="123.628"/>
	<path fill="none" stroke="#24FAFF" stroke-width="0.4" d="M89.222,96.318"/>
</g>
<polyline fill="none" stroke="#24FAFF" stroke-width="0.4" points="60.677,15.559 61.068,17.319 71.044,14.58 80.922,20.644 
	73.098,32.381 81.802,27.1 94.224,19.177 92.169,11.451 103.709,6.365 107.623,12.331 115.838,13.407 122.195,15.167 132.27,11.842 
	"/>
<line fill="none" stroke="#24FAFF" stroke-width="0.4" x1="102.83" y1="1.083" x2="103.709" y2="6.365"/>
<line fill="none" stroke="#24FAFF" stroke-width="0.4" x1="107.623" y1="12.331" x2="94.224" y2="19.177"/>
<line fill="none" stroke="#24FAFF" stroke-width="0.4" x1="92.169" y1="11.451" x2="80.922" y2="20.644"/>
<circle fill="#FFFFFF" cx="91.887" cy="11.535" r="0.856"/>
<circle fill="#FFFFFF" cx="103.579" cy="6.396" r="0.782"/>
<circle fill="#FFFFFF" cx="94.047" cy="19.354" r="0.782"/>
<circle fill="#FFFFFF" cx="107.675" cy="12.093" r="0.559"/>
<circle fill="#FFFFFF" cx="72.562" cy="32.721" r="0.67"/>
<circle fill="#FFFFFF" cx="81.313" cy="27.248" r="0.41"/>
<circle fill="#FFFFFF" cx="80.456" cy="20.583" r="0.447"/>
<circle fill="#FFFFFF" cx="70.626" cy="14.7" r="0.596"/>
<circle fill="#FFFFFF" cx="61.07" cy="17.419" r="0.67"/>
<circle fill="#FFFFFF" cx="60.7" cy="15.516" r="0.484"/>
<circle fill="#FFFFFF" cx="115.866" cy="13.248" r="0.856"/>
<circle fill="#FFFFFF" cx="122.419" cy="15.109" r="0.708"/>
<circle fill="#FFFFFF" cx="132.547" cy="11.981" r="0.856"/>
<circle fill="#FFFFFF" cx="141.669" cy="14.477" r="0.373"/>
<circle fill="#FFFFFF" cx="134.037" cy="19.428" r="0.484"/>
<circle fill="#FFFFFF" cx="135.6" cy="21.663" r="0.41"/>
<circle fill="#FFFFFF" cx="99.111" cy="29.108" r="0.484"/>
<circle fill="#FFFFFF" cx="106.111" cy="30.523" r="0.41"/>
<circle fill="#FFFFFF" cx="119.589" cy="30.151" r="0.484"/>
<circle fill="#FFFFFF" cx="132.398" cy="36.778" r="0.708"/>
<circle fill="#FFFFFF" cx="134.521" cy="42.625" r="0.521"/>
<circle fill="#FFFFFF" cx="131.393" cy="46.497" r="0.745"/>
<circle fill="#FFFFFF" cx="126.626" cy="52.454" r="0.745"/>
<circle fill="#FFFFFF" cx="48.881" cy="22.965" r="0.596"/>
<circle fill="#FFFFFF" cx="54.057" cy="39.162" r="0.41"/>
<circle fill="#FFFFFF" cx="65.264" cy="45.901" r="0.521"/>
<circle fill="#FFFFFF" cx="65.971" cy="51.821" r="0.484"/>
<circle fill="#FFFFFF" cx="61.094" cy="55.88" r="0.521"/>
<circle fill="#FFFFFF" cx="156.303" cy="22.704" r="0.559"/>
<circle fill="#FFFFFF" cx="155.967" cy="37.933" r="0.373"/>
<circle fill="#FFFFFF" cx="175.441" cy="41.097" r="0.335"/>
<circle fill="#FFFFFF" cx="150.904" cy="40.911" r="0.373"/>
<circle fill="#FFFFFF" cx="152.579" cy="42.289" r="0.559"/>
<circle fill="#FFFFFF" cx="150.606" cy="45.081" r="0.67"/>
<circle fill="#FFFFFF" cx="155.595" cy="48.804" r="0.447"/>
<circle fill="#FFFFFF" cx="160.063" cy="51.857" r="0.521"/>
<circle fill="#FFFFFF" cx="170.452" cy="53.831" r="0.708"/>
<circle fill="#FFFFFF" cx="186.723" cy="54.985" r="0.521"/>
<circle fill="#FFFFFF" cx="169.707" cy="59.714" r="0.484"/>
<circle fill="#FFFFFF" cx="160.436" cy="60.867" r="0.67"/>
<circle fill="#FFFFFF" cx="159.281" cy="62.767" r="0.484"/>
<circle fill="#FFFFFF" cx="147.627" cy="62.059" r="0.596"/>
<circle fill="#FFFFFF" cx="155.446" cy="70.027" r="0.521"/>
<circle fill="#FFFFFF" cx="175.627" cy="67.644" r="0.67"/>
<circle fill="#FFFFFF" cx="171.494" cy="71.032" r="0.335"/>
<circle fill="#FFFFFF" cx="167.287" cy="74.048" r="0.67"/>
<circle fill="#FFFFFF" cx="162.669" cy="75.016" r="0.447"/>
<circle fill="#FFFFFF" cx="163.787" cy="75.537" r="0.373"/>
<circle fill="#FFFFFF" cx="162.856" cy="78.255" r="0.484"/>
<circle fill="#FFFFFF" cx="27.732" cy="36.964" r="0.447"/>
<circle fill="#FFFFFF" cx="25.721" cy="43.74" r="0.521"/>
<circle fill="#FFFFFF" cx="32.46" cy="48.692" r="0.559"/>
<circle fill="#FFFFFF" cx="19.801" cy="54.948" r="0.633"/>
<circle fill="#FFFFFF" cx="14.551" cy="63.177" r="0.372"/>
<circle fill="#FFFFFF" cx="18.944" cy="63.624" r="0.596"/>
<circle fill="#FFFFFF" cx="20.21" cy="66.379" r="0.596"/>
<circle fill="#FFFFFF" cx="22.928" cy="69.097" r="0.558"/>
<circle fill="#FFFFFF" cx="29.333" cy="61.649" r="0.484"/>
<circle fill="#FFFFFF" cx="40.95" cy="61.947" r="0.558"/>
<circle fill="#FFFFFF" cx="50.184" cy="58.596" r="0.708"/>
<circle fill="#FFFFFF" cx="51.375" cy="58.149" r="0.335"/>
<circle fill="#FFFFFF" cx="43.668" cy="62.804" r="0.372"/>
<circle fill="#FFFFFF" cx="35.179" cy="75.239" r="0.894"/>
<circle fill="#FFFFFF" cx="44.45" cy="78.106" r="0.707"/>
<circle fill="#FFFFFF" cx="50.891" cy="70.994" r="0.67"/>
<circle fill="#FFFFFF" cx="51.227" cy="72" r="0.335"/>
<circle fill="#FFFFFF" cx="53.945" cy="70.324" r="0.596"/>
<circle fill="#FFFFFF" cx="54.541" cy="76.282" r="0.521"/>
<circle fill="#FFFFFF" cx="63.104" cy="76.059" r="0.447"/>
<circle fill="#FFFFFF" cx="63.104" cy="74.569" r="0.447"/>
<circle fill="#FFFFFF" cx="65.376" cy="74.532" r="0.484"/>
<circle fill="#FFFFFF" cx="90.286" cy="67.941" r="0.447"/>
<circle fill="#FFFFFF" cx="95.089" cy="45.118" r="0.335"/>
<circle fill="#FFFFFF" cx="111.249" cy="41.841" r="0.41"/>
<circle fill="#FFFFFF" cx="113.781" cy="41.99" r="1.005"/>
<circle fill="#FFFFFF" cx="117.542" cy="43.07" r="0.745"/>
<circle fill="#FFFFFF" cx="115.159" cy="48.729" r="0.447"/>
<circle fill="#FFFFFF" cx="112.143" cy="47.277" r="0.559"/>
<circle fill="#FFFFFF" cx="108.531" cy="51.634" r="0.521"/>
<circle fill="#FFFFFF" cx="103.951" cy="53.235" r="0.559"/>
<circle fill="#FFFFFF" cx="98.626" cy="56.996" r="0.372"/>
<circle fill="#FFFFFF" cx="110.057" cy="61.054" r="0.41"/>
<circle fill="#FFFFFF" cx="119.109" cy="54.738" r="0.333"/>
<circle fill="#FFFFFF" cx="117.834" cy="57.674" r="0.499"/>
<circle fill="#FFFFFF" cx="119.331" cy="58.173" r="0.388"/>
<circle fill="#FFFFFF" cx="115.397" cy="61.164" r="0.499"/>
<circle fill="#FFFFFF" cx="116.45" cy="64.986" r="0.443"/>
<circle fill="#FFFFFF" cx="120.66" cy="63.989" r="0.665"/>
<circle fill="#FFFFFF" cx="153.622" cy="75.455" r="0.499"/>
<circle fill="#FFFFFF" cx="141.85" cy="76.313" r="0.526"/>
<circle fill="#FFFFFF" cx="189.27" cy="75.815" r="0.692"/>
<circle fill="#FFFFFF" cx="186.721" cy="83.515" r="0.914"/>
<circle fill="#FFFFFF" cx="193.812" cy="94.871" r="0.692"/>
<circle fill="#FFFFFF" cx="194.279" cy="98.389" r="0.443"/>
<circle fill="#FFFFFF" cx="190.235" cy="101.296" r="0.443"/>
<circle fill="#FFFFFF" cx="189.139" cy="103.205" r="0.416"/>
<circle fill="#FFFFFF" cx="191.596" cy="103.734" r="0.582"/>
<circle fill="#FFFFFF" cx="181.874" cy="95.341" r="0.443"/>
<circle fill="#FFFFFF" cx="188.798" cy="113.4" r="0.665"/>
<circle fill="#FFFFFF" cx="172.761" cy="111.379" r="0.36"/>
<circle fill="#FFFFFF" cx="164.063" cy="100.576" r="0.471"/>
<circle fill="#FFFFFF" cx="164.534" cy="95.341" r="0.443"/>
<circle fill="#FFFFFF" cx="162.983" cy="92.793" r="0.443"/>
<circle fill="#FFFFFF" cx="166.445" cy="87.336" r="0.471"/>
<circle fill="#FFFFFF" cx="170.434" cy="84.899" r="0.416"/>
<circle fill="#FFFFFF" cx="171.071" cy="82.323" r="0.388"/>
<circle fill="#FFFFFF" cx="148.968" cy="78.944" r="0.499"/>
<circle fill="#FFFFFF" cx="147.971" cy="81.049" r="0.388"/>
<circle fill="#FFFFFF" cx="146.89" cy="77.476" r="0.416"/>
<circle fill="#FFFFFF" cx="151.599" cy="82.961" r="0.693"/>
<circle fill="#FFFFFF" cx="150.63" cy="85.148" r="0.609"/>
<circle fill="#FFFFFF" cx="134.953" cy="82.046" r="0.72"/>
<circle fill="#FFFFFF" cx="143.206" cy="82.378" r="0.388"/>
<circle fill="#FFFFFF" cx="143.816" cy="83.485" r="0.443"/>
<circle fill="#FFFFFF" cx="134.981" cy="60.083" r="0.416"/>
<circle fill="#FFFFFF" cx="137.834" cy="57.563" r="0.388"/>
<circle fill="#FFFFFF" cx="141.13" cy="57.978" r="0.637"/>
<circle fill="#FFFFFF" cx="131.989" cy="72.879" r="0.471"/>
<circle fill="#FFFFFF" cx="131.961" cy="75.566" r="0.499"/>
<circle fill="#FFFFFF" cx="132.432" cy="77.311" r="0.36"/>
<circle fill="#FFFFFF" cx="151.101" cy="96.256" r="0.416"/>
<circle fill="#FFFFFF" cx="155.866" cy="97.419" r="0.36"/>
<circle fill="#FFFFFF" cx="146.365" cy="100.272" r="0.388"/>
<circle fill="#FFFFFF" cx="129.192" cy="83.487" r="0.333"/>
<circle fill="#FFFFFF" cx="129.939" cy="84.013" r="0.305"/>
<circle fill="#FFFFFF" cx="131.436" cy="97.474" r="0.748"/>
<circle fill="#FFFFFF" cx="132.377" cy="89.94" r="0.748"/>
<circle fill="#FFFFFF" cx="127.917" cy="102.93" r="0.665"/>
<circle fill="#FFFFFF" cx="126.532" cy="92.405" r="0.388"/>
<circle fill="#FFFFFF" cx="126.007" cy="95.258" r="0.36"/>
<circle fill="#FFFFFF" cx="123.957" cy="95.313" r="0.36"/>
<circle fill="#FFFFFF" cx="124.843" cy="96.366" r="0.36"/>
<circle fill="#FFFFFF" cx="125.591" cy="99.22" r="0.499"/>
<circle fill="#FFFFFF" cx="132.987" cy="100.133" r="0.416"/>
<circle fill="#FFFFFF" cx="136.2" cy="98.97" r="0.416"/>
<circle fill="#FFFFFF" cx="136.171" cy="96.782" r="0.333"/>
<circle fill="#FFFFFF" cx="44.274" cy="63.38" r="0.222"/>
<circle fill="#FFFFFF" cx="63.913" cy="65.733" r="0.36"/>
<circle fill="#FFFFFF" cx="70.158" cy="61.73" r="0.443"/>
<circle fill="#FFFFFF" cx="76.35" cy="60.498" r="0.388"/>
<circle fill="#FFFFFF" cx="83.689" cy="62.853" r="0.194"/>
<circle fill="#FFFFFF" cx="83.413" cy="63.573" r="0.305"/>
<circle fill="#FFFFFF" cx="143.143" cy="150.835" r="0.361"/>
<circle fill="#FFFFFF" cx="79.092" cy="66.73" r="0.305"/>
<circle fill="#FFFFFF" cx="76.377" cy="72.159" r="0.471"/>
<circle fill="#FFFFFF" cx="75.546" cy="72.658" r="0.305"/>
<circle fill="#FFFFFF" cx="100.223" cy="65.761" r="0.665"/>
<circle fill="#FFFFFF" cx="102.133" cy="67.949" r="0.416"/>
<circle fill="#FFFFFF" cx="110.111" cy="70.055" r="0.693"/>
<circle fill="#FFFFFF" cx="104.737" cy="76.147" r="0.471"/>
<circle fill="#FFFFFF" cx="109.335" cy="76.37" r="0.416"/>
<circle fill="#FFFFFF" cx="114.515" cy="76.12" r="0.886"/>
<circle fill="#FFFFFF" cx="117.977" cy="74.929" r="0.637"/>
<circle fill="#FFFFFF" cx="118.67" cy="72.907" r="0.388"/>
<circle fill="#FFFFFF" cx="112.41" cy="78.724" r="0.333"/>
<circle fill="#FFFFFF" cx="110.609" cy="82.187" r="0.582"/>
<path fill="none" stroke="#64FF00" stroke-width="0.5" stroke-linecap="round" stroke-dasharray="1,1.5" d="M16.468,52.554
	c27.59,67.475,98.53,107.922,169.048,97.756"/>
<circle fill="#FFFFFF" cx="58.63" cy="83.243" r="0.642"/>
<circle fill="#FFFFFF" cx="62.304" cy="82.857" r="0.411"/>
<circle fill="#FFFFFF" cx="66.287" cy="79.338" r="0.591"/>
<circle fill="#FFFFFF" cx="69.755" cy="79.929" r="0.771"/>
<circle fill="#FFFFFF" cx="74.482" cy="79.004" r="0.616"/>
<circle fill="#FFFFFF" cx="77.36" cy="78.284" r="0.565"/>
<circle fill="#FFFFFF" cx="75.099" cy="80.545" r="0.411"/>
<circle fill="#FFFFFF" cx="86.814" cy="75.869" r="0.668"/>
<circle fill="#FFFFFF" cx="83.14" cy="87.097" r="0.54"/>
<circle fill="#FFFFFF" cx="74.611" cy="84.219" r="0.437"/>
<circle fill="#FFFFFF" cx="71.476" cy="81.804" r="0.488"/>
<circle fill="#FFFFFF" cx="67.314" cy="79.8" r="0.334"/>
<circle fill="#FFFFFF" cx="67.905" cy="80.648" r="0.36"/>
<circle fill="#FFFFFF" cx="53.441" cy="90.077" r="0.694"/>
<circle fill="#FFFFFF" cx="55.47" cy="86.095" r="0.462"/>
<circle fill="#FFFFFF" cx="55.419" cy="90.822" r="0.36"/>
<circle fill="#FFFFFF" cx="65.978" cy="90.539" r="0.591"/>
<circle fill="#FFFFFF" cx="68.085" cy="92.338" r="0.437"/>
<circle fill="#FFFFFF" cx="68.753" cy="85.145" r="0.437"/>
<circle fill="#FFFFFF" cx="77.128" cy="92.852" r="0.848"/>
<circle fill="#FFFFFF" cx="84.142" cy="101.666" r="0.822"/>
<circle fill="#FFFFFF" cx="88.87" cy="107.164" r="0.617"/>
<circle fill="#FFFFFF" cx="94.65" cy="109.246" r="0.796"/>
<circle fill="#FFFFFF" cx="89.769" cy="104.57" r="0.488"/>
<circle fill="#FFFFFF" cx="87.199" cy="99.74" r="0.437"/>
<circle fill="#FFFFFF" cx="86.84" cy="91.673" r="0.437"/>
<circle fill="#FFFFFF" cx="83.192" cy="89.104" r="0.488"/>
<circle fill="#FFFFFF" cx="81.239" cy="95.475" r="0.488"/>
<circle fill="#FFFFFF" cx="71.708" cy="99.149" r="0.411"/>
<circle fill="#FFFFFF" cx="73.403" cy="98.79" r="0.565"/>
<circle fill="#FFFFFF" cx="74.739" cy="104.699" r="0.617"/>
<circle fill="#FFFFFF" cx="64.077" cy="100.357" r="0.385"/>
<circle fill="#FFFFFF" cx="62.921" cy="101.771" r="0.411"/>
<circle fill="#FFFFFF" cx="64.282" cy="102.207" r="0.385"/>
<circle fill="#FFFFFF" cx="70.038" cy="108.989" r="0.848"/>
<circle fill="#FFFFFF" cx="71.784" cy="112.329" r="0.694"/>
<circle fill="#FFFFFF" cx="71.579" cy="114.076" r="0.54"/>
<circle fill="#FFFFFF" cx="84.271" cy="112.946" r="0.437"/>
<circle fill="#FFFFFF" cx="86.403" cy="112.561" r="0.514"/>
<circle fill="#FFFFFF" cx="88.895" cy="108.476" r="0.437"/>
<circle fill="#FFFFFF" cx="82.678" cy="106.472" r="0.488"/>
<circle fill="#FFFFFF" cx="80.571" cy="108.424" r="0.437"/>
<circle fill="#FFFFFF" cx="81.213" cy="111.121" r="0.462"/>
<circle fill="#FFFFFF" cx="75.381" cy="118.65" r="0.488"/>
<circle fill="#FFFFFF" cx="70.654" cy="123.893" r="0.488"/>
<circle fill="#FFFFFF" cx="65.259" cy="129.031" r="0.642"/>
<circle fill="#FFFFFF" cx="70.808" cy="127.644" r="0.488"/>
<circle fill="#FFFFFF" cx="77.694" cy="126.873" r="0.488"/>
<circle fill="#FFFFFF" cx="83.962" cy="127.798" r="0.591"/>
<circle fill="#FFFFFF" cx="95.55" cy="129.417" r="0.514"/>
<circle fill="#FFFFFF" cx="100.199" cy="130.727" r="0.488"/>
<circle fill="#FFFFFF" cx="103.026" cy="129.854" r="0.437"/>
<circle fill="#FFFFFF" cx="104.798" cy="130.855" r="0.462"/>
<circle fill="#FFFFFF" cx="108.884" cy="132.268" r="0.334"/>
<circle fill="#FFFFFF" cx="98.581" cy="132.498" r="0.36"/>
<circle fill="#FFFFFF" cx="99.557" cy="134.297" r="0.462"/>
<circle fill="#FFFFFF" cx="103.18" cy="134.733" r="0.488"/>
<circle fill="#FFFFFF" cx="105.595" cy="132.832" r="0.488"/>
<circle fill="#FFFFFF" cx="92.595" cy="121.528" r="0.642"/>
<circle fill="#FFFFFF" cx="107.06" cy="110.044" r="0.925"/>
<circle fill="#FFFFFF" cx="88.459" cy="80.032" r="0.617"/>
<circle fill="#FFFFFF" cx="91.594" cy="80.494" r="0.822"/>
<circle fill="#FFFFFF" cx="94.548" cy="79.133" r="0.437"/>
<circle fill="#FFFFFF" cx="96.809" cy="82.936" r="0.797"/>
<circle fill="#FFFFFF" cx="91.825" cy="83.243" r="0.54"/>
<circle fill="#FFFFFF" cx="92.775" cy="84.656" r="0.771"/>
<circle fill="#FFFFFF" cx="92.647" cy="86.994" r="0.437"/>
<circle fill="#FFFFFF" cx="88.51" cy="84.965" r="0.411"/>
<circle fill="#FFFFFF" cx="100.508" cy="94.137" r="0.488"/>
<circle fill="#FFFFFF" cx="99.969" cy="96.013" r="0.359"/>
<circle fill="#FFFFFF" cx="100.277" cy="97.092" r="0.462"/>
<circle fill="#FFFFFF" cx="106.161" cy="97.58" r="0.385"/>
<circle fill="#FFFFFF" cx="109.321" cy="95.293" r="0.36"/>
<circle fill="#FFFFFF" cx="110.349" cy="87.792" r="0.411"/>
<circle fill="#FFFFFF" cx="109.731" cy="90.001" r="0.514"/>
<circle fill="#FFFFFF" cx="110.374" cy="91.928" r="0.488"/>
<circle fill="#FFFFFF" cx="111.89" cy="92.622" r="0.411"/>
<circle fill="#FFFFFF" cx="111.094" cy="96.039" r="0.488"/>
<circle fill="#FFFFFF" cx="114.536" cy="100.149" r="0.488"/>
<circle fill="#FFFFFF" cx="116.617" cy="103.875" r="0.514"/>
<circle fill="#FFFFFF" cx="116.129" cy="88.844" r="0.437"/>
<circle fill="#FFFFFF" cx="113.354" cy="80.674" r="0.334"/>
<circle fill="#FFFFFF" cx="124.094" cy="76.615" r="0.488"/>
<circle fill="#FFFFFF" cx="119.212" cy="91.415" r="0.386"/>
<circle fill="#FFFFFF" cx="124.042" cy="91.003" r="0.437"/>
<circle fill="#FFFFFF" cx="110.914" cy="107.523" r="0.617"/>
<circle fill="#FFFFFF" cx="118.775" cy="110.299" r="0.462"/>
<circle fill="#FFFFFF" cx="123.22" cy="109.039" r="0.54"/>
<circle fill="#FFFFFF" cx="129.386" cy="112.945" r="0.437"/>
<circle fill="#FFFFFF" cx="125.301" cy="116.311" r="0.514"/>
<circle fill="#FFFFFF" cx="111.248" cy="113.563" r="0.54"/>
<circle fill="#FFFFFF" cx="110.091" cy="112.611" r="0.514"/>
<circle fill="#FFFFFF" cx="103.026" cy="114.486" r="0.385"/>
<circle fill="#FFFFFF" cx="103.925" cy="114.203" r="0.308"/>
<circle fill="#FFFFFF" cx="107.907" cy="121.321" r="0.745"/>
<circle fill="#FFFFFF" cx="112.224" cy="123.84" r="0.591"/>
<circle fill="#FFFFFF" cx="113.663" cy="125.072" r="0.745"/>
<circle fill="#FFFFFF" cx="121.55" cy="128.336" r="0.565"/>
<circle fill="#FFFFFF" cx="126.997" cy="123.506" r="0.822"/>
<circle fill="#FFFFFF" cx="132.932" cy="125.176" r="0.437"/>
<circle fill="#FFFFFF" cx="134.987" cy="126.563" r="0.54"/>
<circle fill="#FFFFFF" cx="133.908" cy="121.682" r="0.54"/>
<circle fill="#FFFFFF" cx="134.935" cy="121.014" r="0.385"/>
<circle fill="#FFFFFF" cx="139.663" cy="126.256" r="0.283"/>
<circle fill="#FFFFFF" cx="163.535" cy="102.926" r="0.643"/>
<circle fill="#FFFFFF" cx="152.55" cy="103.869" r="0.301"/>
<circle fill="#FFFFFF" cx="152.852" cy="104.894" r="0.361"/>
<circle fill="#FFFFFF" cx="150.723" cy="104.652" r="0.441"/>
<circle fill="#FFFFFF" cx="147.791" cy="105.215" r="0.643"/>
<circle fill="#FFFFFF" cx="146.083" cy="105.436" r="0.341"/>
<circle fill="#FFFFFF" cx="155.462" cy="112.204" r="0.643"/>
<circle fill="#FFFFFF" cx="155.262" cy="117.867" r="0.603"/>
<circle fill="#FFFFFF" cx="160.342" cy="114.072" r="0.422"/>
<circle fill="#FFFFFF" cx="164.941" cy="117.186" r="0.683"/>
<circle fill="#FFFFFF" cx="175.103" cy="123.933" r="0.603"/>
<circle fill="#FFFFFF" cx="177.532" cy="124.475" r="0.422"/>
<circle fill="#FFFFFF" cx="181.73" cy="121.041" r="0.522"/>
<circle fill="#FFFFFF" cx="188.257" cy="123.631" r="0.502"/>
<circle fill="#FFFFFF" cx="192.875" cy="122.506" r="0.421"/>
<circle fill="#FFFFFF" cx="164.138" cy="124.132" r="0.603"/>
<circle fill="#FFFFFF" cx="158.655" cy="123.429" r="0.342"/>
<circle fill="#FFFFFF" cx="154.137" cy="127.424" r="0.683"/>
<circle fill="#FFFFFF" cx="176.328" cy="141.498" r="0.381"/>
<circle fill="#FFFFFF" cx="177.07" cy="144.129" r="0.603"/>
<circle fill="#FFFFFF" cx="182.734" cy="147.663" r="0.603"/>
<circle fill="#FFFFFF" cx="174.139" cy="156.255" r="0.522"/>
<circle fill="#FFFFFF" cx="156.165" cy="145.071" r="0.663"/>
<circle fill="#FFFFFF" cx="156.185" cy="142.078" r="0.402"/>
<circle fill="#FFFFFF" cx="146.572" cy="130.172" r="0.422"/>
<circle fill="#FFFFFF" cx="145.327" cy="135.394" r="0.422"/>
<circle fill="#FFFFFF" cx="146.632" cy="140.313" r="0.482"/>
<circle fill="#FFFFFF" cx="140.889" cy="143.928" r="0.361"/>
<circle fill="#FFFFFF" cx="133.418" cy="138.506" r="0.683"/>
<circle fill="#FFFFFF" cx="124.562" cy="136.559" r="0.261"/>
<circle fill="#FFFFFF" cx="123.638" cy="134.469" r="0.623"/>
<circle fill="#FFFFFF" cx="118.482" cy="133.525" r="0.362"/>
<circle fill="#FFFFFF" cx="117.638" cy="134.971" r="0.482"/>
<circle fill="#FFFFFF" cx="119.807" cy="136.256" r="0.562"/>
<circle fill="#FFFFFF" cx="116.152" cy="135.252" r="0.401"/>
<circle fill="#FFFFFF" cx="121.795" cy="142.623" r="0.462"/>
<circle fill="#FFFFFF" cx="125.209" cy="149.048" r="0.502"/>
<circle fill="#FFFFFF" cx="130.833" cy="151.016" r="0.663"/>
<circle fill="#FFFFFF" cx="133.082" cy="151.176" r="0.421"/>
<circle fill="#FFFFFF" cx="138.203" cy="150.875" r="0.362"/>
<circle fill="#FFFFFF" cx="134.367" cy="154.867" r="0.341"/>
<circle fill="#FFFFFF" cx="137.72" cy="158.102" r="0.482"/>
<circle fill="#FFFFFF" cx="143.846" cy="161.054" r="0.342"/>
<circle fill="#FFFFFF" cx="148.987" cy="163.102" r="0.502"/>
<circle fill="#FFFFFF" cx="150.694" cy="160.471" r="0.442"/>
<circle fill="#FFFFFF" cx="113.562" cy="149.769" r="0.462"/>
<circle fill="#FFFFFF" cx="112.176" cy="152.318" r="0.603"/>
<circle fill="#FFFFFF" cx="108.601" cy="158.502" r="0.522"/>
<circle fill="#FFFFFF" cx="108.36" cy="160.189" r="0.281"/>
<circle fill="#FFFFFF" cx="104.766" cy="157.599" r="0.542"/>
<circle fill="#FFFFFF" cx="103.882" cy="158.201" r="0.301"/>
<circle fill="#FFFFFF" cx="106.493" cy="142.018" r="0.421"/>
<circle fill="#FFFFFF" cx="106.834" cy="144.971" r="0.201"/>
<circle fill="#FFFFFF" cx="106.091" cy="145.393" r="0.341"/>
<circle fill="#FFFFFF" cx="105.549" cy="145.854" r="0.161"/>
<circle fill="#FFFFFF" cx="94.437" cy="142.179" r="0.422"/>
<circle fill="#FFFFFF" cx="89.979" cy="144.709" r="0.582"/>
<circle fill="#FFFFFF" cx="82.689" cy="154.57" r="0.763"/>
<circle fill="#FFFFFF" cx="65.96" cy="150.573" r="0.582"/>
<circle fill="#FFFFFF" cx="76.865" cy="145.131" r="0.723"/>
<circle fill="#FFFFFF" cx="72.969" cy="142.36" r="0.522"/>
<circle fill="#FFFFFF" cx="65.128" cy="143.685" r="0.623"/>
<circle fill="#FFFFFF" cx="90.62" cy="155.915" r="0.462"/>
<circle fill="#FFFFFF" cx="60.536" cy="156.236" r="0.462"/>
<circle fill="#FFFFFF" cx="78.048" cy="168.24" r="0.542"/>
<circle fill="#FFFFFF" cx="97.608" cy="167.035" r="0.422"/>
<circle fill="#FFFFFF" cx="106.123" cy="172.818" r="0.582"/>
<circle fill="#FFFFFF" cx="102.207" cy="180.229" r="0.522"/>
<circle fill="#FFFFFF" cx="101.424" cy="187.435" r="0.301"/>
<circle fill="#FFFFFF" cx="100.641" cy="192.033" r="0.401"/>
<circle fill="#FFFFFF" cx="116.853" cy="165.387" r="0.462"/>
<circle fill="#FFFFFF" cx="124.364" cy="165.988" r="0.421"/>
<circle fill="#FFFFFF" cx="128.3" cy="166.672" r="0.422"/>
<circle fill="#FFFFFF" cx="132.336" cy="169.865" r="0.402"/>
<circle fill="#FFFFFF" cx="133.18" cy="172.877" r="0.522"/>
<circle fill="#FFFFFF" cx="126.452" cy="173.018" r="0.462"/>
<circle fill="#FFFFFF" cx="119.564" cy="172.234" r="0.442"/>
<circle fill="#FFFFFF" cx="112.476" cy="172.656" r="0.422"/>
<circle fill="#FFFFFF" cx="113.499" cy="173.158" r="0.441"/>
<circle fill="#FFFFFF" cx="130.689" cy="179.382" r="0.683"/>
<circle fill="#FFFFFF" cx="127.075" cy="182.715" r="0.522"/>
<circle fill="#FFFFFF" cx="120.467" cy="188.84" r="0.623"/>
<circle fill="#FFFFFF" cx="116.372" cy="194.221" r="0.864"/>
<circle fill="#FFFFFF" cx="108.499" cy="191.448" r="0.502"/>
<circle fill="#FFFFFF" cx="109.623" cy="188.919" r="0.422"/>
<circle fill="#FFFFFF" cx="86.967" cy="186.831" r="0.904"/>
<circle fill="#FFFFFF" cx="86.887" cy="189.159" r="0.462"/>
<circle fill="#FFFFFF" cx="91.746" cy="192.332" r="0.542"/>
<circle fill="#FFFFFF" cx="75.5" cy="194.2" r="0.643"/>
<circle fill="#FFFFFF" cx="68.813" cy="188.558" r="0.743"/>
<circle fill="#FFFFFF" cx="36.314" cy="164.465" r="0.583"/>
<circle fill="#FFFFFF" cx="43.685" cy="170.59" r="0.603"/>
<circle fill="#FFFFFF" cx="58.385" cy="166.895" r="0.482"/>
<circle fill="#FFFFFF" cx="48.886" cy="144.991" r="0.502"/>
<circle fill="#FFFFFF" cx="58.184" cy="106.18" r="0.362"/>
<circle fill="#FFFFFF" cx="54.77" cy="106.341" r="0.603"/>
<circle fill="#FFFFFF" cx="64.028" cy="122.306" r="0.502"/>
<circle fill="#FFFFFF" cx="18.999" cy="71.211" r="0.422"/>
<circle fill="#FFFFFF" cx="20.746" cy="73.962" r="0.482"/>
<circle fill="#FFFFFF" cx="25.265" cy="78.079" r="0.663"/>
<circle fill="#FFFFFF" cx="11.227" cy="74.604" r="0.482"/>
<circle fill="#FFFFFF" cx="9.42" cy="73.641" r="0.562"/>
<circle fill="#FFFFFF" cx="23.056" cy="81.815" r="0.502"/>
<circle fill="#FFFFFF" cx="26.168" cy="95.171" r="0.563"/>
<circle fill="#FFFFFF" cx="12.994" cy="89.227" r="0.562"/>
<circle fill="#FFFFFF" cx="11.448" cy="89.527" r="0.261"/>
<circle fill="#FFFFFF" cx="12.292" cy="90.05" r="0.261"/>
<circle fill="#FFFFFF" cx="5.443" cy="81.595" r="0.482"/>
<circle fill="#FFFFFF" cx="11.89" cy="95.755" r="0.783"/>
<circle fill="#FFFFFF" cx="9.601" cy="94.992" r="0.422"/>
<circle fill="#FFFFFF" cx="5.022" cy="94.911" r="0.341"/>
<circle fill="#FFFFFF" cx="2.993" cy="107.263" r="0.522"/>
<circle fill="#FFFFFF" cx="11.709" cy="102.965" r="0.281"/>
<circle fill="#FFFFFF" cx="23.759" cy="98.868" r="0.362"/>
<circle fill="#FFFFFF" cx="23.959" cy="101.037" r="0.402"/>
<circle fill="#FFFFFF" cx="29.944" cy="99.913" r="0.482"/>
<circle fill="#FFFFFF" cx="28.658" cy="102.845" r="0.402"/>
<circle fill="#FFFFFF" cx="34.844" cy="98.507" r="0.602"/>
<circle fill="#FFFFFF" cx="40.708" cy="92.239" r="0.241"/>
<circle fill="#FFFFFF" cx="40.306" cy="93.082" r="0.201"/>
<circle fill="#FFFFFF" cx="44.845" cy="96.857" r="0.241"/>
<circle fill="#FFFFFF" cx="37.194" cy="95.312" r="0.261"/>
<circle fill="#FFFFFF" cx="37.154" cy="96.959" r="0.382"/>
<circle fill="#FFFFFF" cx="37.656" cy="98.023" r="0.482"/>
<circle fill="#FFFFFF" cx="36.651" cy="100.192" r="0.281"/>
<circle fill="#FFFFFF" cx="39.282" cy="106.52" r="0.663"/>
<circle fill="#FFFFFF" cx="46.813" cy="110.436" r="0.402"/>
<circle fill="#FFFFFF" cx="45.889" cy="113.93" r="0.402"/>
<circle fill="#FFFFFF" cx="46.391" cy="115.115" r="0.542"/>
<circle fill="#FFFFFF" cx="45.006" cy="121.723" r="0.442"/>
<circle fill="#FFFFFF" cx="34.764" cy="112.887" r="0.563"/>
<circle fill="#FFFFFF" cx="32.976" cy="107.886" r="0.502"/>
<circle fill="#FFFFFF" cx="15.405" cy="107.545" r="0.402"/>
<circle fill="#FFFFFF" cx="17.453" cy="107.906" r="0.482"/>
<circle fill="#FFFFFF" cx="20.706" cy="104.734" r="0.482"/>
<circle fill="#FFFFFF" cx="22.373" cy="103.589" r="0.703"/>
<circle fill="#FFFFFF" cx="6.428" cy="114.914" r="0.623"/>
<circle fill="#FFFFFF" cx="11.328" cy="118.127" r="0.623"/>
<circle fill="#FFFFFF" cx="15.565" cy="116.58" r="0.482"/>
<circle fill="#FFFFFF" cx="18.557" cy="118.447" r="0.582"/>
<circle fill="#FFFFFF" cx="22.393" cy="127.744" r="0.482"/>
<circle fill="#FFFFFF" cx="24.301" cy="127.082" r="0.583"/>
<circle fill="#FFFFFF" cx="10.203" cy="133.908" r="0.462"/>
<circle fill="#FFFFFF" cx="25.325" cy="137.902" r="0.683"/>
<circle fill="#FFFFFF" cx="29.964" cy="137.36" r="0.502"/>
<circle fill="#FFFFFF" cx="32.093" cy="134.389" r="0.623"/>
<circle fill="#FFFFFF" cx="35.165" cy="135.372" r="0.362"/>
<circle fill="#FFFFFF" cx="46.914" cy="137.762" r="0.623"/>
<circle fill="#FFFFFF" cx="47.496" cy="150.873" r="0.482"/>
<circle fill="#FFFFFF" cx="40.788" cy="156.817" r="0.482"/>
<circle fill="#FFFFFF" cx="35.507" cy="153.102" r="0.502"/>
<circle fill="#FFFFFF" cx="30.647" cy="151.937" r="0.542"/>
<circle fill="#FFFFFF" cx="25.345" cy="153.463" r="0.542"/>
<circle fill="#FFFFFF" cx="20.305" cy="153.523" r="0.442"/>
<circle fill="#FFFFFF" cx="22.212" cy="155.391" r="0.301"/>
<circle fill="#FFFFFF" cx="167.406" cy="161.034" r="0.406"/>
<circle fill="#FFFFFF" cx="165.544" cy="162.16" r="0.454"/>
<circle fill="#FFFFFF" cx="52.753" cy="117.853" r="0.402"/>
<circle fill="#FFFFFF" cx="56.734" cy="118.298" r="0.589"/>
<circle fill="#FFFFFF" cx="60.384" cy="121.287" r="0.532"/>
<circle fill="#FFFFFF" cx="49.966" cy="122.681" r="0.747"/>
<circle fill="#FFFFFF" cx="54.65" cy="125.383" r="0.719"/>
<circle fill="#FFFFFF" cx="54.665" cy="128.814" r="0.474"/>
<circle fill="#FFFFFF" cx="138.223" cy="113.403" r="0.483"/>
<circle fill="#FFFFFF" cx="140.167" cy="112.961" r="0.391"/>
<circle fill="#FFFFFF" cx="139.704" cy="114.123" r="0.38"/>
<circle fill="#FFFFFF" cx="141.42" cy="114.093" r="0.35"/>
<circle fill="#FFFFFF" cx="143.436" cy="116.786" r="0.37"/>
</svg>
